<mxfile host="Electron" modified="2024-09-01T13:05:32.963Z" agent="Mozilla/5.0 (Macintosh; Intel Mac OS X 10_15_7) AppleWebKit/537.36 (KHTML, like Gecko) draw.io/21.8.2 Chrome/114.0.5735.289 Electron/25.8.1 Safari/537.36" etag="vMCXB7vsEb3sjU_F0DbO" version="21.8.2" type="device" pages="4">
  <diagram id="BWbxXBuNT8L6N0Wfl1uR" name="system">
    <mxGraphModel dx="1642" dy="1290" grid="0" gridSize="10" guides="1" tooltips="1" connect="1" arrows="1" fold="1" page="0" pageScale="1" pageWidth="1169" pageHeight="827" math="0" shadow="0">
      <root>
        <mxCell id="0" />
        <mxCell id="1" parent="0" />
        <mxCell id="XBLe4lAJMV7L4g9AAdV8-1" value="Orders&lt;br&gt;Application" style="rounded=0;whiteSpace=wrap;html=1;fontSize=16;fillColor=#f5f5f5;fontColor=#333333;strokeColor=#666666;" parent="1" vertex="1">
          <mxGeometry x="34" y="-7" width="120" height="60" as="geometry" />
        </mxCell>
        <mxCell id="XBLe4lAJMV7L4g9AAdV8-2" value="Customers&lt;br&gt;Application" style="rounded=0;whiteSpace=wrap;html=1;fontSize=16;fillColor=#f5f5f5;fontColor=#333333;strokeColor=#666666;" parent="1" vertex="1">
          <mxGeometry x="-118" y="99" width="120" height="60" as="geometry" />
        </mxCell>
        <mxCell id="XBLe4lAJMV7L4g9AAdV8-3" value="Products&lt;br&gt;Application" style="rounded=0;whiteSpace=wrap;html=1;fontSize=16;fillColor=#f5f5f5;fontColor=#333333;strokeColor=#666666;" parent="1" vertex="1">
          <mxGeometry x="191" y="99" width="120" height="60" as="geometry" />
        </mxCell>
        <mxCell id="XBLe4lAJMV7L4g9AAdV8-4" value="" style="endArrow=classic;html=1;rounded=0;fontSize=12;startSize=8;endSize=8;curved=1;" parent="1" source="XBLe4lAJMV7L4g9AAdV8-1" target="XBLe4lAJMV7L4g9AAdV8-2" edge="1">
          <mxGeometry width="50" height="50" relative="1" as="geometry">
            <mxPoint x="209" y="94" as="sourcePoint" />
            <mxPoint x="259" y="44" as="targetPoint" />
          </mxGeometry>
        </mxCell>
        <mxCell id="XBLe4lAJMV7L4g9AAdV8-6" value="imports customers" style="edgeLabel;html=1;align=center;verticalAlign=middle;resizable=0;points=[];fontSize=16;" parent="XBLe4lAJMV7L4g9AAdV8-4" vertex="1" connectable="0">
          <mxGeometry x="-0.1725" relative="1" as="geometry">
            <mxPoint x="-16" y="-1" as="offset" />
          </mxGeometry>
        </mxCell>
        <mxCell id="XBLe4lAJMV7L4g9AAdV8-5" value="" style="endArrow=classic;html=1;rounded=0;fontSize=12;startSize=8;endSize=8;curved=1;" parent="1" source="XBLe4lAJMV7L4g9AAdV8-1" target="XBLe4lAJMV7L4g9AAdV8-3" edge="1">
          <mxGeometry width="50" height="50" relative="1" as="geometry">
            <mxPoint x="137" y="184" as="sourcePoint" />
            <mxPoint x="187" y="134" as="targetPoint" />
          </mxGeometry>
        </mxCell>
        <mxCell id="XBLe4lAJMV7L4g9AAdV8-7" value="refers to products" style="edgeLabel;html=1;align=center;verticalAlign=middle;resizable=0;points=[];fontSize=16;" parent="XBLe4lAJMV7L4g9AAdV8-5" vertex="1" connectable="0">
          <mxGeometry x="-0.2832" y="-3" relative="1" as="geometry">
            <mxPoint x="19" y="2" as="offset" />
          </mxGeometry>
        </mxCell>
      </root>
    </mxGraphModel>
  </diagram>
  <diagram name="customers" id="zoyMd_RS0T68_l398Ynn">
    <mxGraphModel dx="1242" dy="890" grid="0" gridSize="10" guides="1" tooltips="1" connect="1" arrows="1" fold="1" page="0" pageScale="1" pageWidth="1169" pageHeight="827" math="0" shadow="0">
      <root>
        <mxCell id="dClYPnp-i1Kfr-_gbhY3-0" />
        <mxCell id="dClYPnp-i1Kfr-_gbhY3-1" parent="dClYPnp-i1Kfr-_gbhY3-0" />
        <mxCell id="dClYPnp-i1Kfr-_gbhY3-11" value="" style="edgeStyle=none;curved=1;rounded=0;orthogonalLoop=1;jettySize=auto;html=1;fontSize=12;startSize=8;endSize=8;startArrow=diamondThin;startFill=1;endArrow=ERmany;endFill=0;fillColor=#f5f5f5;strokeColor=#666666;" parent="dClYPnp-i1Kfr-_gbhY3-1" source="dClYPnp-i1Kfr-_gbhY3-14" target="dClYPnp-i1Kfr-_gbhY3-15" edge="1">
          <mxGeometry relative="1" as="geometry" />
        </mxCell>
        <mxCell id="dClYPnp-i1Kfr-_gbhY3-12" value="" style="edgeStyle=none;curved=1;rounded=0;orthogonalLoop=1;jettySize=auto;html=1;fontSize=12;startSize=8;endSize=8;endArrow=none;endFill=0;startArrow=diamondThin;startFill=1;fillColor=#f5f5f5;strokeColor=#666666;" parent="dClYPnp-i1Kfr-_gbhY3-1" source="dClYPnp-i1Kfr-_gbhY3-14" target="dClYPnp-i1Kfr-_gbhY3-16" edge="1">
          <mxGeometry relative="1" as="geometry" />
        </mxCell>
        <mxCell id="dClYPnp-i1Kfr-_gbhY3-13" value="" style="edgeStyle=none;curved=1;rounded=0;orthogonalLoop=1;jettySize=auto;html=1;fontSize=12;startSize=8;endSize=8;endArrow=none;endFill=0;fillColor=#f5f5f5;strokeColor=#666666;startArrow=ERmany;startFill=0;" parent="dClYPnp-i1Kfr-_gbhY3-1" source="dClYPnp-i1Kfr-_gbhY3-14" target="dClYPnp-i1Kfr-_gbhY3-17" edge="1">
          <mxGeometry relative="1" as="geometry" />
        </mxCell>
        <mxCell id="dClYPnp-i1Kfr-_gbhY3-14" value="Customer" style="rounded=1;arcSize=10;whiteSpace=wrap;html=1;align=center;fontSize=16;fillColor=#f5f5f5;strokeColor=#666666;fontColor=#333333;" parent="dClYPnp-i1Kfr-_gbhY3-1" vertex="1">
          <mxGeometry x="239" y="112" width="100" height="40" as="geometry" />
        </mxCell>
        <mxCell id="dClYPnp-i1Kfr-_gbhY3-15" value="Contact" style="rounded=1;arcSize=10;whiteSpace=wrap;html=1;align=center;fontSize=16;fillColor=#f5f5f5;strokeColor=#666666;fontColor=#333333;" parent="dClYPnp-i1Kfr-_gbhY3-1" vertex="1">
          <mxGeometry x="239" y="192" width="100" height="40" as="geometry" />
        </mxCell>
        <mxCell id="dClYPnp-i1Kfr-_gbhY3-16" value="Address" style="rounded=1;arcSize=10;whiteSpace=wrap;html=1;align=center;fontSize=16;fillColor=#f5f5f5;strokeColor=#666666;fontColor=#333333;" parent="dClYPnp-i1Kfr-_gbhY3-1" vertex="1">
          <mxGeometry x="384" y="112" width="100" height="40" as="geometry" />
        </mxCell>
        <mxCell id="dClYPnp-i1Kfr-_gbhY3-17" value="Region" style="rounded=1;arcSize=10;whiteSpace=wrap;html=1;align=center;fontSize=16;fillColor=#f5f5f5;strokeColor=#666666;fontColor=#333333;" parent="dClYPnp-i1Kfr-_gbhY3-1" vertex="1">
          <mxGeometry x="239" y="32" width="100" height="40" as="geometry" />
        </mxCell>
      </root>
    </mxGraphModel>
  </diagram>
  <diagram id="YeAQCyHVGHsz3EyA0soZ" name="products">
    <mxGraphModel dx="1242" dy="890" grid="0" gridSize="10" guides="1" tooltips="1" connect="1" arrows="1" fold="1" page="0" pageScale="1" pageWidth="1169" pageHeight="827" math="0" shadow="0">
      <root>
        <mxCell id="0" />
        <mxCell id="1" parent="0" />
        <mxCell id="boCYpf8LKnDZ2YYD7pWz-1" value="" style="edgeStyle=none;curved=1;rounded=0;orthogonalLoop=1;jettySize=auto;html=1;fontSize=12;startSize=8;endSize=8;endArrow=none;endFill=0;startArrow=ERmany;startFill=0;fillColor=#f5f5f5;strokeColor=#666666;" parent="1" source="boCYpf8LKnDZ2YYD7pWz-2" target="boCYpf8LKnDZ2YYD7pWz-3" edge="1">
          <mxGeometry relative="1" as="geometry" />
        </mxCell>
        <mxCell id="boCYpf8LKnDZ2YYD7pWz-2" value="Product" style="rounded=1;arcSize=10;whiteSpace=wrap;html=1;align=center;fontSize=16;fillColor=#f5f5f5;strokeColor=#666666;fontColor=#333333;" parent="1" vertex="1">
          <mxGeometry x="7" y="59" width="100" height="40" as="geometry" />
        </mxCell>
        <mxCell id="boCYpf8LKnDZ2YYD7pWz-3" value="ProductCategory" style="rounded=1;arcSize=10;whiteSpace=wrap;html=1;align=center;fontSize=16;fillColor=#f5f5f5;strokeColor=#666666;fontColor=#333333;" parent="1" vertex="1">
          <mxGeometry x="185" y="61" width="137" height="40" as="geometry" />
        </mxCell>
      </root>
    </mxGraphModel>
  </diagram>
  <diagram name="orders" id="PgV7-fgAokEckYyqNhqn">
    <mxGraphModel dx="1242" dy="1290" grid="0" gridSize="10" guides="1" tooltips="1" connect="1" arrows="1" fold="1" page="0" pageScale="1" pageWidth="1169" pageHeight="827" math="0" shadow="0">
      <root>
        <mxCell id="0" />
        <mxCell id="1" parent="0" />
        <mxCell id="oVbaRHmwaBf-rDZ1Ohel-6" value="" style="rounded=0;whiteSpace=wrap;html=1;fontSize=16;dashed=1;" parent="1" vertex="1">
          <mxGeometry x="209" y="-20.5" width="277" height="227" as="geometry" />
        </mxCell>
        <mxCell id="XOPSb-WFEHp5mYBFE3kr-8" value="" style="edgeStyle=none;curved=1;rounded=0;orthogonalLoop=1;jettySize=auto;html=1;fontSize=12;startSize=8;endSize=8;endArrow=ERmany;endFill=0;startArrow=diamondThin;startFill=1;" parent="1" source="XOPSb-WFEHp5mYBFE3kr-3" target="XOPSb-WFEHp5mYBFE3kr-7" edge="1">
          <mxGeometry relative="1" as="geometry" />
        </mxCell>
        <mxCell id="XOPSb-WFEHp5mYBFE3kr-10" value="" style="edgeStyle=none;curved=1;rounded=0;orthogonalLoop=1;jettySize=auto;html=1;fontSize=12;startSize=8;endSize=8;endArrow=none;endFill=0;startArrow=ERmany;startFill=0;" parent="1" source="XOPSb-WFEHp5mYBFE3kr-3" target="XOPSb-WFEHp5mYBFE3kr-9" edge="1">
          <mxGeometry relative="1" as="geometry" />
        </mxCell>
        <mxCell id="XOPSb-WFEHp5mYBFE3kr-3" value="Order" style="rounded=1;arcSize=10;whiteSpace=wrap;html=1;align=center;fontSize=16;fillColor=#f5f5f5;strokeColor=#666666;fontColor=#333333;" parent="1" vertex="1">
          <mxGeometry x="40" y="155" width="100" height="40" as="geometry" />
        </mxCell>
        <mxCell id="XOPSb-WFEHp5mYBFE3kr-12" value="" style="edgeStyle=none;curved=1;rounded=0;orthogonalLoop=1;jettySize=auto;html=1;fontSize=12;startSize=8;endSize=8;endArrow=none;endFill=0;startArrow=ERmany;startFill=0;" parent="1" source="XOPSb-WFEHp5mYBFE3kr-7" target="XOPSb-WFEHp5mYBFE3kr-11" edge="1">
          <mxGeometry relative="1" as="geometry" />
        </mxCell>
        <mxCell id="XOPSb-WFEHp5mYBFE3kr-7" value="OrderLine" style="rounded=1;arcSize=10;whiteSpace=wrap;html=1;align=center;fontSize=16;fillColor=#f5f5f5;strokeColor=#666666;fontColor=#333333;" parent="1" vertex="1">
          <mxGeometry x="40" y="249" width="100" height="40" as="geometry" />
        </mxCell>
        <mxCell id="XOPSb-WFEHp5mYBFE3kr-9" value="SimpleCustomer" style="rounded=1;arcSize=10;whiteSpace=wrap;html=1;align=center;fontSize=16;fillColor=#f5f5f5;strokeColor=#666666;fontColor=#333333;" parent="1" vertex="1">
          <mxGeometry x="21.5" y="73" width="137" height="40" as="geometry" />
        </mxCell>
        <mxCell id="XOPSb-WFEHp5mYBFE3kr-14" value="" style="edgeStyle=none;curved=1;rounded=0;orthogonalLoop=1;jettySize=auto;html=1;fontSize=12;startSize=8;endSize=8;endArrow=none;endFill=0;startArrow=ERmany;startFill=0;" parent="1" source="XOPSb-WFEHp5mYBFE3kr-11" target="XOPSb-WFEHp5mYBFE3kr-13" edge="1">
          <mxGeometry relative="1" as="geometry" />
        </mxCell>
        <mxCell id="XOPSb-WFEHp5mYBFE3kr-11" value="Product" style="rounded=1;arcSize=10;whiteSpace=wrap;html=1;align=center;fontSize=16;fillColor=#dae8fc;strokeColor=#6c8ebf;" parent="1" vertex="1">
          <mxGeometry x="204" y="249" width="100" height="40" as="geometry" />
        </mxCell>
        <mxCell id="XOPSb-WFEHp5mYBFE3kr-13" value="ProductCategory" style="rounded=1;arcSize=10;whiteSpace=wrap;html=1;align=center;fontSize=16;fillColor=#dae8fc;strokeColor=#6c8ebf;" parent="1" vertex="1">
          <mxGeometry x="349" y="249" width="137" height="40" as="geometry" />
        </mxCell>
        <mxCell id="XOPSb-WFEHp5mYBFE3kr-18" value="" style="edgeStyle=none;curved=1;rounded=0;orthogonalLoop=1;jettySize=auto;html=1;fontSize=12;startSize=8;endSize=8;startArrow=diamondThin;startFill=1;endArrow=ERmany;endFill=0;" parent="1" source="XOPSb-WFEHp5mYBFE3kr-15" target="XOPSb-WFEHp5mYBFE3kr-17" edge="1">
          <mxGeometry relative="1" as="geometry" />
        </mxCell>
        <mxCell id="XOPSb-WFEHp5mYBFE3kr-20" value="" style="edgeStyle=none;curved=1;rounded=0;orthogonalLoop=1;jettySize=auto;html=1;fontSize=12;startSize=8;endSize=8;endArrow=none;endFill=0;startArrow=diamondThin;startFill=1;" parent="1" source="XOPSb-WFEHp5mYBFE3kr-15" target="XOPSb-WFEHp5mYBFE3kr-19" edge="1">
          <mxGeometry relative="1" as="geometry" />
        </mxCell>
        <mxCell id="XOPSb-WFEHp5mYBFE3kr-22" value="" style="edgeStyle=none;curved=1;rounded=0;orthogonalLoop=1;jettySize=auto;html=1;fontSize=12;startSize=8;endSize=8;endArrow=none;endFill=0;startArrow=ERmany;startFill=0;" parent="1" source="XOPSb-WFEHp5mYBFE3kr-15" target="XOPSb-WFEHp5mYBFE3kr-21" edge="1">
          <mxGeometry relative="1" as="geometry" />
        </mxCell>
        <mxCell id="XOPSb-WFEHp5mYBFE3kr-15" value="Customer" style="rounded=1;arcSize=10;whiteSpace=wrap;html=1;align=center;fontSize=16;fillColor=#dae8fc;strokeColor=#6c8ebf;" parent="1" vertex="1">
          <mxGeometry x="226" y="74.5" width="100" height="40" as="geometry" />
        </mxCell>
        <mxCell id="XOPSb-WFEHp5mYBFE3kr-17" value="Contact" style="rounded=1;arcSize=10;whiteSpace=wrap;html=1;align=center;fontSize=16;fillColor=#dae8fc;strokeColor=#6c8ebf;" parent="1" vertex="1">
          <mxGeometry x="226" y="155.5" width="100" height="40" as="geometry" />
        </mxCell>
        <mxCell id="XOPSb-WFEHp5mYBFE3kr-19" value="Address" style="rounded=1;arcSize=10;whiteSpace=wrap;html=1;align=center;fontSize=16;fillColor=#dae8fc;strokeColor=#6c8ebf;" parent="1" vertex="1">
          <mxGeometry x="371" y="74.5" width="100" height="40" as="geometry" />
        </mxCell>
        <mxCell id="XOPSb-WFEHp5mYBFE3kr-21" value="Region" style="rounded=1;arcSize=10;whiteSpace=wrap;html=1;align=center;fontSize=16;fillColor=#dae8fc;strokeColor=#6c8ebf;" parent="1" vertex="1">
          <mxGeometry x="226" y="-2.5" width="100" height="40" as="geometry" />
        </mxCell>
        <mxCell id="oVbaRHmwaBf-rDZ1Ohel-9" value="" style="endArrow=none;dashed=1;html=1;rounded=0;fontSize=12;startSize=8;endSize=8;curved=1;" parent="1" source="XOPSb-WFEHp5mYBFE3kr-9" target="oVbaRHmwaBf-rDZ1Ohel-6" edge="1">
          <mxGeometry width="50" height="50" relative="1" as="geometry">
            <mxPoint x="-51" y="20" as="sourcePoint" />
            <mxPoint x="-1" y="-30" as="targetPoint" />
          </mxGeometry>
        </mxCell>
      </root>
    </mxGraphModel>
  </diagram>
</mxfile>
